Patient4_TMGait_0pt2_03_right_03_GRF.mot
version=1
nRows=52
nColumns=19
inDegrees=no
endheader
time	F1x	F1y	F1z	M1x	M1y	M1z	F2x	F2y	F2z	M2x	M2y	M2z	EC1x	EC1y	EC1z	EC2x	EC2y	EC2z
6.23	-14.3007	791.3863	59.5144	-265.2018	-63.2131	799.1675	-2.8296	8.1735	-2.4837	4.3638	2.4961	6.7063	-0.0592	0.0182	-0.0073	-0.0462	0.0165	0.9585
6.2511	-14.2587	811.7845	58.6373	-273.1452	-61.9096	817.8913	-2.58	7.2704	-1.8335	3.5944	2.094	6.2071	-0.0592	0.0182	-0.0073	-0.0462	0.0165	0.9585
6.2721	-14.3729	834.4301	57.7285	-281.9089	-60.5194	838.2336	-2.1913	5.9369	-1.2201	2.7335	1.6352	5.2618	-0.0592	0.0182	-0.0073	-0.0462	0.0165	0.9585
6.2932	-14.5422	856.8027	56.828	-290.5564	-59.063	857.6985	-1.7063	4.467	-0.71211	1.9109	1.1812	4.1268	-0.0592	0.0182	-0.0073	-0.0462	0.0165	0.9585
6.3143	-14.5319	876.0601	55.9492	-298.057	-57.5023	873.4936	-1.2299	3.1263	-0.33354	1.2238	0.79137	3.0516	-0.0592	0.0182	-0.0073	-0.0462	0.0165	0.9585
6.3354	-14.0344	889.4851	55.0839	-303.4415	-55.7613	882.9648	-0.8273	2.0471	-0.079947	0.70856	0.49264	2.1702	-0.0592	0.0182	-0.0073	-0.0462	0.0165	0.9585
6.3564	-12.7745	894.8488	54.2061	-305.9261	-53.7618	883.9758	-0.52489	1.2579	0.068743	0.35861	0.28681	1.5181	-0.0592	0.0182	-0.0073	-0.0462	0.0165	0.9585
6.3775	-10.6087	890.8146	53.2605	-305.0512	-51.4376	875.3159	-0.32608	0.72386	0.13821	0.14313	0.16268	1.0717	-0.0592	0.0182	-0.0073	-0.0462	0.0165	0.9585
6.3986	-7.5345	877.2771	52.1586	-300.7964	-48.7263	857.0158	-0.22179	0.37548	0.15247	0.020627	0.10556	0.77134	-0.0592	0.0182	-0.0073	-0.0462	0.0165	0.9585
6.4196	-3.6501	855.4613	50.8073	-293.608	-45.5831	830.4191	-0.19775	0.12798	0.13127	-0.052338	0.099408	0.54064	-0.0592	0.0182	-0.0073	-0.0462	0.0165	0.9585
6.4407	0.87536	827.7094	49.1574	-284.3133	-42.0182	797.9541	-0.2339	-0.10869	0.090263	-0.11807	0.12772	0.29315	-0.0592	0.0182	-0.0073	-0.0462	0.0165	0.9585
6.4618	5.8342	797.0521	47.2446	-273.9649	-38.1273	762.7071	-0.30643	-0.42405	0.044069	-0.21652	0.17193	-0.056803	-0.0592	0.0182	-0.0073	-0.0462	0.0165	0.9585
6.4829	11.0094	766.7477	45.1907	-263.676	-34.0889	727.9646	-0.38752	-0.89736	0.0061398	-0.38247	0.21214	-0.58832	-0.0592	0.0182	-0.0073	-0.0462	0.0165	0.9585
6.5039	16.1863	739.8902	43.1778	-254.4863	-30.1364	696.8267	-0.44596	-1.5805	-0.016556	-0.63887	0.23245	-1.3563	-0.0592	0.0182	-0.0073	-0.0462	0.0165	0.9585
6.525	21.1326	719.0415	41.418	-247.2396	-26.534	671.87	-0.44446	-2.4837	-0.021558	-0.99039	0.21728	-2.3689	-0.0592	0.0182	-0.0073	-0.0462	0.0165	0.9585
6.5461	25.5852	705.8889	40.1231	-242.472	-23.5563	654.8324	-0.3376	-3.551	-0.010175	-1.4146	0.14974	-3.5612	-0.0592	0.0182	-0.0073	-0.0462	0.0165	0.9585
6.5671	29.2795	700.9912	39.472	-240.3379	-21.4487	646.3576	-0.070718	-4.6218	0.012234	-1.8471	0.014528	-4.757	-0.0592	0.0182	-0.0073	-0.0462	0.0165	0.9585
6.5882	32.0286	703.6822	39.577	-240.5915	-20.3719	645.8706	0.41381	-5.3914	0.033438	-2.1664	-0.19727	-5.6267	-0.0592	0.0182	-0.0073	-0.0462	0.0165	0.9585
6.6093	33.7917	712.176	40.4688	-242.634	-20.3673	651.6457	1.1646	-5.3747	0.036293	-2.1788	-0.48579	-5.646	-0.0592	0.0182	-0.0073	-0.0462	0.0165	0.9585
6.6304	34.6863	723.9197	42.0886	-245.6381	-21.3437	661.1431	2.2015	-3.883	0.0013589	-1.6104	-0.83826	-4.0667	-0.0592	0.0182	-0.0073	-0.0462	0.0165	0.9585
6.6514	34.9424	736.0911	44.2964	-248.7075	-23.102	671.5153	3.4912	-0.02626	-0.092641	-0.10793	-1.2189	0.081224	-0.0592	0.0182	-0.0073	-0.0462	0.0165	0.9585
6.6725	34.8161	745.9942	46.878	-250.9987	-25.3687	680.0331	4.9097	7.2256	-0.26778	2.7391	-1.5546	7.9181	-0.0592	0.0182	-0.0073	-0.0462	0.0165	0.9585
6.6936	34.5028	751.2343	49.5384	-251.7694	-27.8173	684.3011	6.1937	18.9001	-0.54568	7.3429	-1.7161	20.563	-0.0592	0.0182	-0.0073	-0.0462	0.0165	0.9585
6.7146	34.0992	749.8076	51.9361	-250.3971	-30.1125	682.377	6.8473	35.7973	-0.95027	14.0296	-1.4797	38.8955	-0.0592	0.0182	-0.0073	-0.0462	0.0165	0.9585
6.7357	33.6003	740.191	53.7491	-246.3984	-31.9701	672.8658	6.1601	58.2515	-1.522	22.9442	-0.52404	63.2903	-0.0592	0.0182	-0.0073	-0.0462	0.0165	0.9585
6.7568	32.9185	721.5301	54.7152	-239.4923	-33.1902	655.0743	3.7726	86.1061	-2.3723	34.0303	1.4149	93.5637	-0.0592	0.0182	-0.0073	-0.0462	0.0165	0.9585
6.7779	31.9356	693.8769	54.6626	-229.684	-33.6692	629.1831	-0.051821	118.6146	-3.7159	46.9814	4.467	128.8202	-0.0592	0.0182	-0.0073	-0.0462	0.0165	0.9585
6.7989	30.5766	658.316	53.5309	-217.3142	-33.3873	596.3083	-4.7251	154.4672	-5.7293	61.2623	8.5821	167.5111	-0.0592	0.0182	-0.0073	-0.0462	0.0165	0.9585
6.82	28.8529	616.8138	51.3706	-203.0207	-32.3897	558.3341	-9.5751	192.5853	-8.3165	76.4427	13.3825	208.3399	-0.0592	0.0182	-0.0073	-0.0462	0.0165	0.9585
6.8411	26.8546	571.7329	48.3162	-187.5817	-30.7607	517.4443	-14.0331	232.4276	-11.2118	92.3137	18.3567	250.6178	-0.0592	0.0182	-0.0073	-0.0462	0.0165	0.9585
6.8621	24.7177	525.3049	44.5662	-171.7411	-28.6135	475.643	-17.6804	273.5656	-14.1638	108.7071	23.0728	293.8291	-0.0592	0.0182	-0.0073	-0.0462	0.0165	0.9585
6.8832	22.5731	479.2956	40.3505	-156.0969	-26.0822	434.4698	-20.2524	315.2421	-17.032	125.3116	27.2825	337.1631	-0.0592	0.0182	-0.0073	-0.0462	0.0165	0.9585
6.9043	20.5171	434.844	35.896	-141.0485	-23.3042	394.8695	-21.6439	356.3052	-19.8125	141.6467	30.942	379.4211	-0.0592	0.0182	-0.0073	-0.0462	0.0165	0.9585
6.9254	18.6229	392.4026	31.3901	-126.7731	-20.3947	357.1526	-21.9098	395.5859	-22.5883	157.2191	34.1557	419.4041	-0.0592	0.0182	-0.0073	-0.0462	0.0165	0.9585
6.9464	16.9407	351.8318	26.9706	-113.248	-17.438	321.098	-21.234	432.4309	-25.4289	171.749	37.0615	456.4681	-0.0592	0.0182	-0.0073	-0.0462	0.0165	0.9585
6.9675	15.4644	312.6172	22.7304	-100.3106	-14.5053	286.1651	-19.8734	466.9875	-28.3328	185.2908	39.751	490.8199	-0.0592	0.0182	-0.0073	-0.0462	0.0165	0.9585
6.9886	14.1041	274.1229	18.7176	-87.7417	-11.6624	251.7368	-18.0993	500.0527	-31.2633	198.1723	42.2843	523.3554	-0.0592	0.0182	-0.0073	-0.0462	0.0165	0.9585
7.0096	12.7132	235.895	14.9563	-75.3698	-8.9765	217.3836	-16.1633	532.6312	-34.2006	210.8175	44.7295	555.1796	-0.0592	0.0182	-0.0073	-0.0462	0.0165	0.9585
7.0307	11.1422	197.9155	11.4826	-63.1574	-6.5333	183.0835	-14.2827	565.5135	-37.1356	223.5799	47.1559	587.156	-0.0592	0.0182	-0.0073	-0.0462	0.0165	0.9585
7.0518	9.2951	160.7288	8.3738	-51.2464	-4.4443	149.3321	-12.634	598.9511	-40.021	236.6072	49.5879	619.598	-0.0592	0.0182	-0.0073	-0.0462	0.0165	0.9585
7.0729	7.1811	125.3881	5.7297	-39.9472	-2.8114	117.093	-11.3505	632.457	-42.7299	249.7562	51.9579	652.071	-0.0592	0.0182	-0.0073	-0.0462	0.0165	0.9585
7.0939	4.9414	93.216	3.6258	-29.6672	-1.671	87.5835	-10.5299	664.8369	-45.0691	262.5977	54.1126	683.4177	-0.0592	0.0182	-0.0073	-0.0462	0.0165	0.9585
7.115	2.811	65.3941	2.0695	-20.7809	-0.96625	61.9034	-10.2318	694.4667	-46.8414	274.5171	55.8709	712.0414	-0.0592	0.0182	-0.0073	-0.0462	0.0165	0.9585
7.1361	1.0154	42.629	0.99581	-13.519	-0.57674	40.7421	-10.4602	719.7394	-47.9149	284.8837	57.0885	736.3513	-0.0592	0.0182	-0.0073	-0.0462	0.0165	0.9585
7.1571	-0.2914	25.0975	0.31386	-7.9395	-0.37907	24.3233	-11.1567	739.566	-48.2691	293.2501	57.7079	755.2652	-0.0592	0.0182	-0.0073	-0.0462	0.0165	0.9585
7.1782	-1.0656	12.5196	-0.071433	-3.9498	-0.27777	12.4493	-12.2353	753.8396	-47.9915	299.5375	57.7648	768.6733	-0.0592	0.0182	-0.0073	-0.0462	0.0165	0.9585
7.1993	-1.3914	4.2801	-0.24543	-1.3489	-0.22167	4.6009	-13.6346	763.6731	-47.2445	304.1379	57.3791	777.6731	-0.0592	0.0182	-0.0073	-0.0462	0.0165	0.9585
7.2204	-1.4251	-0.46615	-0.27692	0.13676	-0.19801	0.029487	-15.2965	771.2446	-46.2197	307.8671	56.7083	784.4003	-0.0592	0.0182	-0.0073	-0.0462	0.0165	0.9585
7.2414	-1.2996	-2.6519	-0.22347	0.80776	-0.19904	-2.1141	-17.1031	779.226	-45.1012	311.746	55.8914	791.4453	-0.0592	0.0182	-0.0073	-0.0462	0.0165	0.9585
7.2625	-1.1079	-3.1364	-0.12892	0.94065	-0.21658	-2.6316	-18.8631	789.9399	-44.0526	316.669	55.0283	801.0051	-0.0592	0.0182	-0.0073	-0.0462	0.0165	0.9585
7.2836	-0.90771	-2.6204	-0.024241	0.76063	-0.24203	-2.1855	-20.3434	804.6171	-43.1904	323.1045	54.1611	814.1545	-0.0592	0.0182	-0.0073	-0.0462	0.0165	0.9585
7.3046	-0.73104	-1.6255	0.071257	0.43526	-0.27106	-1.2795	-21.2919	822.9244	-42.5709	330.9019	53.2617	830.4036	-0.0592	0.0182	-0.0073	-0.0462	0.0165	0.9585
